<svg xmlns="http://www.w3.org/2000/svg" xmlns:xlink="http://www.w3.org/1999/xlink" viewBox="0 0 211 361"><defs><style>.cls-1{fill:#fff;}.cls-2{fill:none;}.cls-3{isolation:isolate;}.cls-4{clip-path:url(#clip-path);}.cls-5{mask:url(#mask);}.cls-12,.cls-14,.cls-15,.cls-16,.cls-22,.cls-6,.cls-7{mix-blend-mode:multiply;}.cls-6{fill:url(#Nueva_muestra_de_degradado_13);}.cls-7{fill:url(#Nueva_muestra_de_degradado_13-2);}.cls-8{clip-path:url(#clip-path-2);}.cls-9{mask:url(#mask-2);}.cls-10{fill:url(#Nueva_muestra_de_degradado_4);}.cls-11{opacity:0.9;fill:url(#Nueva_muestra_de_degradado_4-2);}.cls-12{fill:url(#Nueva_muestra_de_degradado_13-3);}.cls-13{fill:url(#Nueva_muestra_de_degradado_4-3);}.cls-14{fill:url(#Nueva_muestra_de_degradado_13-4);}.cls-15{fill:url(#Nueva_muestra_de_degradado_13-5);}.cls-16{fill:url(#Nueva_muestra_de_degradado_13-6);}.cls-17{opacity:0.37;fill:url(#Nueva_muestra_de_degradado_4-4);}.cls-17,.cls-18{mix-blend-mode:color-dodge;}.cls-18{fill:url(#Nueva_muestra_de_degradado_4-5);}.cls-19{fill:#19232d;}.cls-20{fill:url(#Nueva_muestra_de_degradado_4-6);}.cls-21{fill:url(#Nueva_muestra_de_degradado_4-7);}.cls-22{fill:url(#Nueva_muestra_de_degradado_13-7);}.cls-23{fill:url(#Nueva_muestra_de_degradado_4-8);}</style><clipPath id="clip-path"><rect class="cls-2" x="-335" y="41" width="211" height="361"/></clipPath><mask id="mask" x="-335" y="41" width="351.84" height="485.75" maskUnits="userSpaceOnUse"/><radialGradient id="Nueva_muestra_de_degradado_13" cx="253.44" cy="395.29" r="79.77" gradientTransform="matrix(-1.79, 0, 0, -2.12, 318.57, 1205.54)" gradientUnits="userSpaceOnUse"><stop offset="0" stop-color="#754153"/><stop offset="0.01" stop-color="#774355"/><stop offset="0.14" stop-color="#9b7582"/><stop offset="0.28" stop-color="#b99fa8"/><stop offset="0.42" stop-color="#d3c2c8"/><stop offset="0.56" stop-color="#e6dde0"/><stop offset="0.7" stop-color="#f4f0f1"/><stop offset="0.85" stop-color="#fcfbfc"/><stop offset="1" stop-color="#fff"/></radialGradient><radialGradient id="Nueva_muestra_de_degradado_13-2" cx="252.63" cy="402.45" r="79.77" gradientTransform="matrix(-1.79, 0, 0, -2.12, 309.13, 1207.73)" xlink:href="#Nueva_muestra_de_degradado_13"/><clipPath id="clip-path-2"><rect class="cls-2" width="211" height="361"/></clipPath><mask id="mask-2" x="-50.39" y="0" width="402.23" height="485.75" maskUnits="userSpaceOnUse"><rect class="cls-1" width="211" height="361"/></mask><linearGradient id="Nueva_muestra_de_degradado_4" x1="-338.69" y1="696.2" x2="-155.81" y2="696.2" gradientTransform="translate(-243.79 -401.33) rotate(-43.79)" gradientUnits="userSpaceOnUse"><stop offset="0" stop-color="#ad1c5a"/><stop offset="0.36" stop-color="#c42351"/><stop offset="0.72" stop-color="#d52849"/><stop offset="1" stop-color="#db2a47"/></linearGradient><linearGradient id="Nueva_muestra_de_degradado_4-2" x1="-520.65" y1="759.31" x2="-395.23" y2="759.31" gradientTransform="matrix(-0.03, -1, 1, -0.03, -742.98, -185.21)" xlink:href="#Nueva_muestra_de_degradado_4"/><radialGradient id="Nueva_muestra_de_degradado_13-3" cx="90.65" cy="315.71" r="79.77" gradientTransform="matrix(-1.79, 0, 0, -2.12, 361.39, 995.61)" xlink:href="#Nueva_muestra_de_degradado_13"/><linearGradient id="Nueva_muestra_de_degradado_4-3" x1="-551.35" y1="880.88" x2="-368.47" y2="880.88" gradientTransform="matrix(-0.03, -1, 1, -0.03, -742.98, -185.21)" xlink:href="#Nueva_muestra_de_degradado_4"/><radialGradient id="Nueva_muestra_de_degradado_13-4" cx="89.85" cy="322.87" r="79.77" gradientTransform="matrix(-1.79, 0, 0, -2.12, 351.95, 997.8)" xlink:href="#Nueva_muestra_de_degradado_13"/><radialGradient id="Nueva_muestra_de_degradado_13-5" cx="124.56" cy="515.52" r="47.33" gradientTransform="matrix(0, -1.79, 2.12, 0, -1038.78, 492.91)" xlink:href="#Nueva_muestra_de_degradado_13"/><radialGradient id="Nueva_muestra_de_degradado_13-6" cx="103.76" cy="376.71" r="9.25" gradientTransform="matrix(-1.79, 0, 0, -2.12, 288.18, 1035.87)" xlink:href="#Nueva_muestra_de_degradado_13"/><linearGradient id="Nueva_muestra_de_degradado_4-4" x1="-390.78" y1="605.1" x2="-280.56" y2="605.1" gradientTransform="translate(-45.49 -368.73) rotate(-35.72)" xlink:href="#Nueva_muestra_de_degradado_4"/><linearGradient id="Nueva_muestra_de_degradado_4-5" x1="-557.41" y1="903.16" x2="-409.8" y2="903.16" gradientTransform="matrix(-0.03, -1, 1, -0.03, -742.98, -185.21)" xlink:href="#Nueva_muestra_de_degradado_4"/><linearGradient id="Nueva_muestra_de_degradado_4-6" x1="-427.31" y1="874.8" x2="-417.96" y2="874.8" gradientTransform="matrix(0.18, -0.98, 0.98, 0.18, -642.52, -359.72)" xlink:href="#Nueva_muestra_de_degradado_4"/><linearGradient id="Nueva_muestra_de_degradado_4-7" x1="-453.8" y1="832.34" x2="-431.62" y2="832.34" gradientTransform="translate(-520.65 -476.05) rotate(-69.42)" xlink:href="#Nueva_muestra_de_degradado_4"/><radialGradient id="Nueva_muestra_de_degradado_13-7" cx="143.5" cy="390.84" r="9.25" gradientTransform="matrix(-1.79, 0, 0, -2.12, 284.5, 1084.84)" xlink:href="#Nueva_muestra_de_degradado_13"/><linearGradient id="Nueva_muestra_de_degradado_4-8" x1="-473.6" y1="755.98" x2="-443.98" y2="755.98" gradientTransform="translate(-519.32 -445.78) rotate(-69.42)" xlink:href="#Nueva_muestra_de_degradado_4"/></defs><title>background_1</title><g class="cls-3"><g id="LAYER"><g class="cls-4"><g class="cls-5"><ellipse class="cls-6" cx="-136.33" cy="366.38" rx="143.18" ry="169.34" transform="translate(-248.03 -8.25) rotate(-37.01)"/><ellipse class="cls-7" cx="-144.33" cy="353.38" rx="143.18" ry="169.34" transform="translate(-241.82 -15.68) rotate(-37.01)"/></g></g><g class="cls-8"><g class="cls-9"><path class="cls-10" d="M-22.19,220.11c5.92-8,14.53-13.46,23.59-17.35s19.36-6.2,29-3.66c22.23,5.86,30.49,28.84,43.4,45.12,7.08,8.93,17.85,6.09,27.47,3.82s19.41-5.07,29.36-6.33c9.5-1.21,20.94-1.17,29.33,4.1,8.6,5.41,10.51,16.34,9.63,25.73A90,90,0,0,1,167,285c-12,31-37,56-67.48,69.21-17.07,7.38-36.25,11-54.83,9.19C23.38,361.3,4.52,349.39-8.69,332.8-21.09,317.23-28.16,298-31.5,278.48S-34.36,236.61-22.19,220.11Z"/><rect class="cls-1" width="211" height="361"/><path class="cls-11" d="M110.14,281.69c-2.72,7.54-8.11,13.69-14.2,18.75s-13.48,9.2-21.5,9.45c-18.46.57-30.07-15.23-43.73-24.82-7.49-5.26-15.14-.6-22,3.34S-5.1,296.76-12.48,300c-7,3.1-15.86,5.69-23.52,3.55-7.86-2.2-11.83-10.18-13.3-17.61a72.28,72.28,0,0,1-1.1-11c2.15-26.57,15.7-51.62,36.12-68.72,11.46-9.59,25.38-16.8,40.11-19.61C42.75,183.41,60,188.27,74,198c13.11,9.16,23,22.38,30,36.61S115.73,266.21,110.14,281.69Z"/><ellipse class="cls-12" cx="198.67" cy="325.38" rx="143.18" ry="169.34" transform="translate(-155.85 185.16) rotate(-37.01)"/><path class="cls-13" d="M58.49,272.47c-2-9.78-.29-19.8,2.88-29.14s8.34-18.54,16.69-24c19.22-12.61,41.84-3.38,62.57-2.08,11.37.71,16.47-9.2,21.21-17.86s9.22-17.82,14.94-26.06c5.46-7.87,13.14-16.35,22.67-19.06,9.77-2.77,19.18,3.11,25.57,10.06a90,90,0,0,1,8.3,10.94c15,29.62,16.89,65,6.31,96.45-5.93,17.63-16,34.34-29.84,46.9-15.85,14.43-37.33,20.48-58.49,19.2-19.88-1.2-38.93-8.84-55.64-19.38S62.63,292.54,58.49,272.47Z"/><ellipse class="cls-14" cx="190.67" cy="312.38" rx="143.18" ry="169.34" transform="translate(-149.63 177.72) rotate(-37.01)"/><ellipse class="cls-15" cx="55.62" cy="269.32" rx="100.47" ry="84.95" transform="translate(-218.21 243.97) rotate(-73.04)"/><ellipse class="cls-16" cx="101.92" cy="236.15" rx="16.59" ry="19.63" transform="translate(-121.62 108.94) rotate(-37.01)"/><path class="cls-17" d="M17.37,227c24.24,1.28,34.22,15.82,41.37,35.94,6.12,17.21,8.6,37.94,21.44,50.16s29.14,16.8,34.93,34c7.77,23.08-7.11,42.31-25.92,50.27-26.08,11-47.15-3.56-53.88-25.27C29.74,354.14,24.86,335.17,3,323c-16.18-9-40.14-4-48.53-23.48C-55,277.4-27.46,224.63,17.37,227Z"/><path class="cls-18" d="M85.37,275.52c6-23.11,22.12-31.08,43-35.72,17.91-4,38.5-4.07,52.89-15s22.06-26.1,39.9-29.76c23.92-4.91,39.63,11.48,43.63,30.4,5.54,26.23-12.78,44.84-35.17,48.89-18.52,3.36-37.89,6-54,25.57-12,14.53-11.81,38.06-32.38,44C119.93,350.52,74.21,318.25,85.37,275.52Z"/><path class="cls-19" d="M263.14,407.26,253,278.59s-35.8-21.93-90.4-6.69-72.64,3.85-96.84-.07-37.17,2.51-58.38,8.48S-30,282-30,282L-26.31,429Z"/><ellipse class="cls-20" cx="144.72" cy="209.61" rx="4.77" ry="4.67" transform="translate(-40.1 34.34) rotate(-11.9)"/><circle class="cls-21" cx="102.92" cy="231.02" r="11.08" transform="translate(-80.24 56.62) rotate(-22.39)"/><ellipse class="cls-22" cx="26.92" cy="255.15" rx="16.59" ry="19.63" transform="translate(-148.17 67.62) rotate(-37.01)"/><ellipse class="cls-23" cx="27.1" cy="249.5" rx="15.09" ry="14.76" transform="translate(-93 29.14) rotate(-22.39)"/></g></g></g></g></svg>