<svg xmlns="http://www.w3.org/2000/svg" xmlns:xlink="http://www.w3.org/1999/xlink" viewBox="0 0 214 358"><defs><style>.cls-1{fill:#fff;}.cls-2{fill:none;}.cls-3{isolation:isolate;}.cls-4{clip-path:url(#clip-path);}.cls-5{mask:url(#mask);}.cls-17,.cls-6{mix-blend-mode:multiply;}.cls-6{fill:url(#Nueva_muestra_de_degradado_12);}.cls-7{fill:url(#Nueva_muestra_de_degradado_11);}.cls-19,.cls-20,.cls-21,.cls-8{mix-blend-mode:color-dodge;}.cls-8{fill:url(#linear-gradient);}.cls-9{clip-path:url(#clip-path-2);}.cls-10{mask:url(#mask-2);}.cls-11{fill:url(#Degradado_sin_nombre_120);}.cls-12{fill:url(#Degradado_sin_nombre_120-2);}.cls-13{fill:url(#Degradado_sin_nombre_120-3);}.cls-14{opacity:0.57;fill:url(#Degradado_sin_nombre_120-4);}.cls-15{fill:url(#Degradado_sin_nombre_120-5);}.cls-16{fill:url(#Degradado_sin_nombre_120-6);}.cls-17{fill:url(#Nueva_muestra_de_degradado_10);}.cls-18{fill:url(#Degradado_sin_nombre_120-7);}.cls-19{fill:url(#linear-gradient-2);}.cls-20{fill:url(#linear-gradient-3);}.cls-21{fill:url(#linear-gradient-4);}.cls-22{fill:#19232d;}</style><clipPath id="clip-path"><rect class="cls-2" x="-259" y="-1" width="209" height="360"/></clipPath><mask id="mask" x="-259" y="-1" width="338.46" height="478.01" maskUnits="userSpaceOnUse"/><radialGradient id="Nueva_muestra_de_degradado_12" cx="-759.7" cy="435.28" r="80.85" gradientTransform="matrix(-1.79, 0, 0, -2.12, -1453.25, 1231.05)" gradientUnits="userSpaceOnUse"><stop offset="0" stop-color="#1220be"/><stop offset="0.04" stop-color="#2a36c4"/><stop offset="0.14" stop-color="#5b65d2"/><stop offset="0.24" stop-color="#878ede"/><stop offset="0.35" stop-color="#acb1e8"/><stop offset="0.45" stop-color="#cacdf1"/><stop offset="0.57" stop-color="#e2e3f7"/><stop offset="0.69" stop-color="#f2f3fb"/><stop offset="0.83" stop-color="#fcfcfe"/><stop offset="1" stop-color="#fff"/></radialGradient><linearGradient id="Nueva_muestra_de_degradado_11" x1="-1972.79" y1="41.77" x2="-1833.32" y2="41.77" gradientTransform="matrix(-1.57, -0.68, 0.51, -1.16, -3064.78, -987.74)" gradientUnits="userSpaceOnUse"><stop offset="0" stop-color="#7fdffd"/><stop offset="0.39" stop-color="#72c4fc"/><stop offset="0.74" stop-color="#6ab3fb"/><stop offset="1" stop-color="#67adfb"/></linearGradient><linearGradient id="linear-gradient" x1="476.06" y1="-543.31" x2="556.86" y2="-405.69" gradientTransform="matrix(0.94, 0.62, -0.6, 1.05, -843.71, 506.66)" gradientUnits="userSpaceOnUse"><stop offset="0"/><stop offset="0.23" stop-color="#050505"/><stop offset="0.48" stop-color="#131313"/><stop offset="0.76" stop-color="#292929"/><stop offset="1" stop-color="#444"/></linearGradient><clipPath id="clip-path-2"><rect class="cls-2" width="214" height="358"/></clipPath><mask id="mask-2" x="-44.87" y="0" width="438.87" height="474.59" maskUnits="userSpaceOnUse"><rect class="cls-1" width="214" height="358"/></mask><linearGradient id="Degradado_sin_nombre_120" x1="-1567.23" y1="1288.13" x2="-1537.13" y2="1288.13" gradientTransform="translate(-1277.1 -1287.06) rotate(-90)" gradientUnits="userSpaceOnUse"><stop offset="0" stop-color="#f6ff00"/><stop offset="0.24" stop-color="#f8e306"/><stop offset="0.74" stop-color="#ff9b14"/><stop offset="0.77" stop-color="#ff9715"/><stop offset="1" stop-color="#ff9515"/></linearGradient><linearGradient id="Degradado_sin_nombre_120-2" x1="-1523.31" y1="1308.28" x2="-1514.8" y2="1308.28" gradientTransform="translate(-1291 -1292.2) rotate(-90)" xlink:href="#Degradado_sin_nombre_120"/><linearGradient id="Degradado_sin_nombre_120-3" x1="-2090.84" y1="-377.73" x2="-1896.14" y2="-377.73" gradientTransform="translate(-1831.78 981.12) rotate(150.25)" xlink:href="#Degradado_sin_nombre_120"/><linearGradient id="Degradado_sin_nombre_120-4" x1="-314.97" y1="861.79" x2="-149.04" y2="861.79" gradientTransform="translate(296.85 -561.87) rotate(1.73)" xlink:href="#Degradado_sin_nombre_120"/><linearGradient id="Degradado_sin_nombre_120-5" x1="-962.56" y1="-339.72" x2="-932.46" y2="-339.72" gradientTransform="translate(-263.45 1152.99) rotate(90)" xlink:href="#Degradado_sin_nombre_120"/><linearGradient id="Degradado_sin_nombre_120-6" x1="-986.35" y1="-363.86" x2="-969.63" y2="-363.86" gradientTransform="translate(-270.04 1148.77) rotate(90)" xlink:href="#Degradado_sin_nombre_120"/><radialGradient id="Nueva_muestra_de_degradado_10" cx="-611.71" cy="139.79" r="81.33" gradientTransform="matrix(-1.79, 0, 0, -2.12, -909.21, 607.68)" gradientUnits="userSpaceOnUse"><stop offset="0" stop-color="#bfb000"/><stop offset="0.07" stop-color="#c9bd2a"/><stop offset="0.16" stop-color="#d6cc5b"/><stop offset="0.26" stop-color="#e1da87"/><stop offset="0.36" stop-color="#eae5ac"/><stop offset="0.47" stop-color="#f2efca"/><stop offset="0.58" stop-color="#f8f6e2"/><stop offset="0.7" stop-color="#fcfbf2"/><stop offset="0.83" stop-color="#fefefc"/><stop offset="1" stop-color="#fff"/></radialGradient><linearGradient id="Degradado_sin_nombre_120-7" x1="-1963.36" y1="-782.39" x2="-1783.41" y2="-782.39" gradientTransform="matrix(-1.55, 0.72, -0.53, -1.15, -3113.79, 721.02)" xlink:href="#Degradado_sin_nombre_120"/><linearGradient id="linear-gradient-2" x1="781.61" y1="-115.7" x2="862.88" y2="22.74" gradientTransform="translate(-640.71 232.26) rotate(10.07)" xlink:href="#linear-gradient"/><linearGradient id="linear-gradient-3" x1="794.6" y1="347.02" x2="854.22" y2="448.57" gradientTransform="translate(-799.57 139.52) rotate(-14.77)" xlink:href="#linear-gradient"/><linearGradient id="linear-gradient-4" x1="956.77" y1="290.33" x2="1016.38" y2="391.87" gradientTransform="translate(-799.57 139.52) rotate(-14.77)" xlink:href="#linear-gradient"/></defs><title>background_3</title><g class="cls-3"><g id="LAYER"><g class="cls-4"><g class="cls-5"><ellipse class="cls-6" cx="-89.71" cy="307.01" rx="145.11" ry="171.62" transform="translate(-82.78 -12.76) rotate(-15.05)"/><path class="cls-7" d="M-178.67,245.53c8-7.24,20.42-11.54,34.28-8.8a51.58,51.58,0,0,1,9.23,2.9,32.29,32.29,0,0,0,9.31,2.67c7,.53,10-4.66,12.46-8.77,12-20.11,11.88-48.06,34.3-62.19,8.93-5.63,21.88-8,34.74-4.45,13.49,3.7,22.32,13.79,28,23.95,3,5.32,5.37,10.75,7.77,16.16,2.64,6,5.23,11.94,7.45,18a119.38,119.38,0,0,1,5.23,17.78,82.77,82.77,0,0,1,1.34,16.74c0,4.37.19,9.22,3.16,13.58,3.67,5.39,10.06,7.53,16.39,9.8,3.11,1.12,6.32,2.39,8.72,4.59a14,14,0,0,1,3.92,6.29c1.55,5.17.27,9.88-1.73,14.19-2.2,4.73-4.95,9.21-6,14.39a1.22,1.22,0,0,0-.62,1.09,176.64,176.64,0,0,1-5,37.59A169.12,169.12,0,0,1,19,378.78c-1.67,4.56-3.3,9.37-6.83,13-3.38,3.47-8.81,5-15,2.37-6.71-2.89-11.57-8.51-15.57-13.59-8.68-11-15.09-22.76-22.4-34.2a153.8,153.8,0,0,0-11.8-16.59,34.08,34.08,0,0,0-17.61-11.38c-12.5-3.38-25.71-2.93-37.61-2.28s-23.65,1.92-35.86,1.63c-11.83-.28-25.42-2.13-36.58-8.42-6.68-3.77-10.44-8.85-12-14.83a52.71,52.71,0,0,1-1.16-18.13C-192.25,264.75-187.52,253.55-178.67,245.53Z"/><path class="cls-8" d="M-177.22,218.91c32.69-19.72,58.52-9.59,85.59,10.29,23.16,17,44.68,41.82,72.18,46.41s52.77-3.84,75.5,13.47c30.48,23.2,28.07,61.38,10.6,88.34-24.23,37.39-64.55,37-92.46,14.64-23.1-18.49-46.2-38.88-85.41-35.48-29,2.52-55.79,30.22-83.92,12.25C-227,348.44-237.69,255.39-177.22,218.91Z"/></g></g><g class="cls-9"><g class="cls-10"><rect class="cls-1" width="214" height="358"/><ellipse class="cls-11" cx="11.03" cy="265.12" rx="15.39" ry="15.05" transform="translate(-98.7 23.52) rotate(-22.04)"/><circle class="cls-12" cx="17.28" cy="226.86" r="4.26" transform="translate(-83.88 23.07) rotate(-22.04)"/><path class="cls-13" d="M-15.23,333.16c-1.88-9.41-.16-19,2.94-28s8.12-17.76,16.17-23c18.54-12,40.22-3,60.13-1.63,10.92.75,15.88-8.74,20.49-17s9-17.07,14.5-25c5.29-7.53,12.72-15.64,21.89-18.18,9.41-2.61,18.41,3.1,24.51,9.81a86.47,86.47,0,0,1,7.91,10.56c14.23,28.54,15.85,62.57,5.5,92.71-5.8,16.9-15.6,32.9-28.95,44.89-15.32,13.77-36,19.46-56.31,18.11-19.09-1.27-37.35-8.72-53.35-18.95S-11.38,352.47-15.23,333.16Z"/><path class="cls-14" d="M118.75,328.16c-2.82,7.67-8.35,13.9-14.59,19s-13.8,9.3-22,9.5c-18.82.47-30.57-15.71-44.43-25.57-7.61-5.4-15.43-.71-22.47,3.27S1.17,342.81-6.37,346.08c-7.2,3.12-16.2,5.71-24,3.47-8-2.29-12-10.45-13.45-18a73.69,73.69,0,0,1-1-11.2c2.36-27.08,16.32-52.53,37.25-69.83,11.74-9.7,26-17,41-19.75,17.26-3.19,34.81,1.87,49,11.89,13.31,9.42,23.27,23,30.34,37.51S124.54,312.41,118.75,328.16Z"/><ellipse class="cls-15" cx="76.26" cy="205.48" rx="15.39" ry="15.05" transform="translate(-39.6 19.43) rotate(-11.55)"/><circle class="cls-16" cx="93.82" cy="170.78" r="8.36" transform="translate(-32.29 22.24) rotate(-11.55)"/><ellipse class="cls-17" cx="188.72" cy="310.94" rx="145.97" ry="172.64" transform="matrix(0.8, -0.6, 0.6, 0.8, -148.34, 174.22)"/><path class="cls-18" d="M89.5,366.31c-.17-13.9,6.31-29.6,20.81-40.65A66.54,66.54,0,0,1,121,319.22c3.75-1.88,7.61-3.85,10.54-6.7,6.5-6.32,4-13.65,2.18-19.54-9.13-28.83-36.27-52.57-30.76-86.32,2.2-13.43,11-28,25.41-37.37,15.11-9.88,32.42-9.77,47.12-6.62,7.7,1.65,15,4,22.26,6.32,8,2.55,16,5.16,23.71,8.15a154,154,0,0,1,21.65,10.15,106.79,106.79,0,0,1,17.32,13c4.22,3.74,9.06,7.7,15.82,8.56,8.35,1.06,15.87-3.28,23.48-7.45,3.74-2.05,7.71-4.06,11.89-4.49a18,18,0,0,1,9.43,1.59c6.32,2.92,9.78,8.19,12.23,13.81C336,218.5,338,225,342.1,230.39a1.57,1.57,0,0,0,.52,1.53,227.9,227.9,0,0,1,32.09,36.93,218.19,218.19,0,0,1,12.54,20.46c3,5.52,6.24,11.2,6.72,17.71.46,6.23-2.67,12.82-10.54,16.52-8.53,4-18.12,3.9-26.44,3.43-18.05-1-34.9-4.88-52.19-7.6a198.43,198.43,0,0,0-26.12-2.79,44,44,0,0,0-26.05,7.28c-14,9.19-24.81,22.33-34.36,34.38s-18.37,24.49-29.08,36c-10.38,11.19-23.8,22.74-39.41,28.14-9.35,3.23-17.47,2.52-24.55-1.13a68,68,0,0,1-18.51-14.38C96.46,395.87,89.69,381.72,89.5,366.31Z"/><path class="cls-19" d="M51.64,277c21.26-25.49,46.2-26,75.27-19.47,24.87,5.59,50.83,17.65,75.42,12.38s43.18-19.78,67.79-13.83c33,8,43.05,37.88,36.89,64-8.55,36.27-42.6,48.83-73.16,40.69-25.29-6.73-51.18-14.92-83.09.19-23.64,11.2-37.37,40.88-66.73,36.14C50.74,391.73,12.32,324.11,51.64,277Z"/><path class="cls-20" d="M-.84,317.12C5.46,293.6,21.9,285.57,43.27,281c18.28-3.94,39.27-3.91,54-15s22.65-26.47,40.86-30.09c24.42-4.85,40.33,11.95,44.29,31.26,5.49,26.78-13.31,45.63-36.16,49.63-18.91,3.31-38.67,5.84-55.25,25.73-12.28,14.74-12.28,38.73-33.28,44.62C33.93,393.79-12.48,360.62-.84,317.12Z"/><path class="cls-21" d="M141.51,220.95c6.3-23.52,22.74-31.55,44.1-36.15,18.28-3.94,39.27-3.91,54-15s22.65-26.47,40.86-30.09c24.42-4.85,40.33,11.95,44.29,31.26,5.49,26.78-13.31,45.63-36.16,49.63-18.91,3.31-38.67,5.84-55.25,25.73C221.1,261.06,221.1,285,200.1,290.94,176.28,297.62,129.87,264.45,141.51,220.95Z"/><path class="cls-22" d="M296.78,369.29l-42.6-124.5s-40.91-12.58-91,16.31-70.76,22.22-95.64,24.48-36.06,11.9-55.5,23.18S-24.49,319.9-24.49,319.9l41,144.29Z"/></g></g></g></g></svg>